<?xml version="1.0" encoding="utf-8"?>
<!-- Generator: Adobe Illustrator 16.2.1, SVG Export Plug-In . SVG Version: 6.00 Build 0)  -->
<!DOCTYPE svg PUBLIC "-//W3C//DTD SVG 1.1//EN" "http://www.w3.org/Graphics/SVG/1.1/DTD/svg11.dtd">
<svg version="1.1" id="Ebene_1" xmlns="http://www.w3.org/2000/svg" xmlns:xlink="http://www.w3.org/1999/xlink" x="0px" y="0px"
	 width="125px" height="130px" viewBox="0 0 125 130" enable-background="new 0 0 125 130" xml:space="preserve">
<g id="Ebene_1_1_">
	<g id="bg">
		<polygon display="none" fill="#CCCCCC" points="125,99.17 62.5,127.5 0,99.17 0,30.83 62.5,2.5 125,30.83 		"/>
		<polygon fill="#1B485D" points="122,100.102 62,129.202 2,100.102 2,29.899 62,0.798 122,29.899 		"/>
	</g>
	<g display="none">
		<path display="inline" fill="#1B485D" d="M145.773,78.658c-3.944,0-7.154-3.209-7.154-7.155V51.519
			c0-3.945,3.21-7.155,7.154-7.155h25.453c3.945,0,7.155,3.21,7.155,7.155v19.985c0,3.945-3.21,7.155-7.155,7.155
			C171.227,78.658,145.792,78.658,145.773,78.658z M169.029,74.948c2.88,0,5.222-2.343,5.222-5.222V53.193
			c0-2.879-2.342-5.221-5.222-5.221h-21.059c-2.879,0-5.221,2.342-5.221,5.221v16.534c0,2.879,2.342,5.222,5.221,5.222
			c0.1,0,0.207-0.005,0.338-0.013l0.406-0.025v0.037C148.715,74.948,169.029,74.948,169.029,74.948z"/>
		<path display="inline" fill="#1B485D" d="M163.621,82.417c0.044,0.524,0.068,1.06,0.068,1.601c0,0.619-0.033,1.244-0.094,1.86
			h-0.424h-0.455c0.062-0.601,0.098-1.222,0.098-1.86c0-0.149-0.002-0.297-0.006-0.443c-0.002-0.124-0.008-0.248-0.014-0.371
			c-0.001-0.02-0.001-0.041-0.002-0.061c-0.064-1.353-0.277-2.615-0.605-3.719h-7.375c-0.328,1.104-0.543,2.366-0.606,3.719
			c-0.001,0.02-0.001,0.041-0.002,0.06c-0.007,0.124-0.011,0.247-0.015,0.372c-0.002,0.146-0.006,0.294-0.006,0.441
			c0,0.64,0.035,1.26,0.099,1.861h-0.455h-0.423c-0.062-0.615-0.094-1.241-0.094-1.861c0-0.541,0.023-1.076,0.067-1.6
			c-4.633,0.693-7.879,2.299-7.879,4.168c0,2.504,5.819,4.533,12.999,4.533s13-2.03,13-4.533
			C171.5,84.715,168.254,83.109,163.621,82.417z"/>
		<path display="inline" fill="#00AEEE" d="M171.119,51.02c-0.419-0.302-1.002-0.209-1.305,0.209l-9.252,12.776l-6.713-5.106
			c-0.021-0.016-0.043-0.026-0.065-0.04c-0.022-0.015-0.044-0.033-0.07-0.046c-0.004-0.002-0.009-0.003-0.013-0.005
			c-0.033-0.017-0.067-0.028-0.102-0.04c-0.023-0.009-0.048-0.02-0.072-0.027c-0.031-0.009-0.064-0.012-0.098-0.018
			c-0.027-0.004-0.055-0.011-0.082-0.013c-0.029-0.002-0.06,0-0.09,0.001c-0.029,0.001-0.061,0-0.091,0.004
			c-0.028,0.004-0.056,0.012-0.085,0.018c-0.03,0.007-0.061,0.012-0.09,0.021c-0.028,0.009-0.053,0.022-0.079,0.034
			c-0.029,0.012-0.058,0.023-0.086,0.039c-0.022,0.013-0.044,0.029-0.065,0.045c-0.029,0.02-0.058,0.037-0.085,0.06
			c-0.018,0.015-0.034,0.035-0.051,0.052c-0.026,0.027-0.054,0.053-0.078,0.083c-0.003,0.004-0.006,0.006-0.009,0.01
			c-0.016,0.021-0.025,0.043-0.039,0.064c-0.016,0.024-0.033,0.045-0.046,0.07l-6.308,12.148c-0.238,0.459-0.06,1.022,0.398,1.261
			c0.139,0.071,0.285,0.104,0.43,0.104c0.338,0,0.664-0.184,0.83-0.504l5.797-11.164l6.592,5.013
			c0.002,0.002,0.004,0.002,0.007,0.004c0.004,0.003,0.007,0.007,0.01,0.009c0.054,0.038,0.112,0.06,0.17,0.086
			c0.03,0.015,0.058,0.035,0.091,0.045c0.094,0.03,0.19,0.046,0.286,0.046c0.071,0,0.144-0.008,0.212-0.025
			c0.026-0.006,0.049-0.018,0.074-0.025c0.043-0.014,0.087-0.025,0.127-0.046c0.029-0.015,0.053-0.034,0.08-0.052
			c0.035-0.021,0.07-0.041,0.102-0.066c0.027-0.021,0.049-0.05,0.072-0.075c0.026-0.026,0.055-0.049,0.077-0.079
			c0.002-0.002,0.004-0.007,0.006-0.01s0.005-0.005,0.007-0.008l9.812-13.55C171.631,51.907,171.537,51.323,171.119,51.02z"/>
	</g>
</g>
<g id="Ebene_4" display="none">
	<g id="Stock" display="inline">
		<g>
			
				<image overflow="visible" opacity="0.25" enable-background="new    " width="247" height="170" xlink:href="9D70E219ACA8189E.png"  transform="matrix(0.2341 0 0 0.2245 32.042 49.373)">
			</image>
			<g>
				<g>
					<polygon fill="#1B485D" points="52.699,83.374 34.042,83.374 67.051,51.374 85.708,51.374 					"/>
					<polygon fill="#00AEEE" points="67.051,83.374 85.708,83.374 52.699,51.374 34.042,51.374 					"/>
					<polygon fill="#1B485D" points="52.699,83.374 34.042,83.374 50.546,67.374 69.204,67.374 					"/>
				</g>
			</g>
		</g>
	</g>
</g>
<g id="Ebene_2">
	<g>
		<path fill="#00AEEE" d="M50.774,78.658c-3.945,0-7.155-3.209-7.155-7.155V51.519c0-3.945,3.21-7.155,7.155-7.155h25.453
			c3.945,0,7.155,3.21,7.155,7.155v19.985c0,3.945-3.21,7.155-7.155,7.155C76.227,78.658,50.792,78.658,50.774,78.658z
			 M74.029,74.948c2.88,0,5.222-2.343,5.222-5.222V53.193c0-2.879-2.342-5.221-5.222-5.221H52.971c-2.879,0-5.221,2.342-5.221,5.221
			v16.534c0,2.879,2.342,5.222,5.221,5.222c0.1,0,0.207-0.005,0.338-0.013l0.406-0.025v0.037
			C53.715,74.948,74.029,74.948,74.029,74.948z"/>
		<path fill="#00AEEE" d="M68.621,82.417c0.044,0.524,0.068,1.06,0.068,1.601c0,0.619-0.033,1.244-0.094,1.86h-0.424h-0.455
			c0.062-0.601,0.098-1.222,0.098-1.86c0-0.149-0.002-0.297-0.006-0.443c-0.002-0.124-0.008-0.248-0.014-0.371
			c-0.001-0.02-0.001-0.041-0.002-0.061c-0.064-1.353-0.277-2.615-0.605-3.719h-7.375c-0.328,1.104-0.542,2.366-0.606,3.719
			c-0.001,0.02-0.001,0.041-0.002,0.06c-0.006,0.124-0.01,0.247-0.014,0.372c-0.003,0.146-0.006,0.294-0.006,0.441
			c0,0.64,0.035,1.26,0.098,1.861h-0.455h-0.423c-0.061-0.615-0.094-1.241-0.094-1.861c0-0.541,0.024-1.076,0.068-1.6
			c-4.633,0.693-7.879,2.299-7.879,4.168c0,2.504,5.82,4.533,12.999,4.533c7.18,0,13-2.03,13-4.533
			C76.5,84.715,73.254,83.109,68.621,82.417z"/>
		<path fill="#CCCCCC" d="M76.119,51.02c-0.419-0.302-1.002-0.209-1.305,0.209l-9.252,12.776l-6.713-5.106
			c-0.021-0.016-0.043-0.026-0.065-0.04c-0.023-0.015-0.044-0.033-0.07-0.046c-0.004-0.002-0.009-0.003-0.013-0.005
			c-0.033-0.017-0.067-0.028-0.101-0.04c-0.024-0.009-0.048-0.02-0.072-0.027c-0.032-0.009-0.065-0.012-0.098-0.018
			c-0.028-0.004-0.055-0.011-0.083-0.013c-0.029-0.002-0.059,0-0.089,0.001c-0.03,0.001-0.061,0-0.091,0.004
			c-0.029,0.004-0.056,0.012-0.085,0.018c-0.03,0.007-0.06,0.012-0.09,0.021c-0.028,0.009-0.053,0.022-0.079,0.034
			c-0.029,0.012-0.058,0.023-0.086,0.039c-0.023,0.013-0.044,0.029-0.066,0.045c-0.029,0.02-0.057,0.037-0.084,0.06
			c-0.018,0.015-0.034,0.035-0.051,0.052c-0.027,0.027-0.054,0.053-0.078,0.083c-0.003,0.004-0.006,0.006-0.009,0.01
			c-0.016,0.021-0.026,0.043-0.039,0.064c-0.015,0.024-0.033,0.045-0.046,0.07l-6.308,12.148c-0.238,0.459-0.059,1.022,0.399,1.261
			c0.138,0.071,0.285,0.104,0.43,0.104c0.338,0,0.663-0.184,0.83-0.504L58.6,61.059l6.591,5.013
			c0.002,0.002,0.006,0.002,0.008,0.004c0.004,0.003,0.007,0.007,0.01,0.009c0.053,0.038,0.111,0.06,0.17,0.086
			c0.03,0.015,0.059,0.035,0.09,0.045c0.094,0.03,0.191,0.046,0.287,0.046c0.071,0,0.143-0.008,0.212-0.025
			c0.026-0.006,0.05-0.018,0.074-0.025c0.043-0.014,0.087-0.025,0.127-0.046c0.028-0.015,0.054-0.034,0.08-0.051
			c0.035-0.021,0.069-0.041,0.103-0.067c0.026-0.021,0.049-0.05,0.071-0.074c0.026-0.027,0.054-0.05,0.077-0.08
			c0.002-0.002,0.004-0.007,0.006-0.01s0.006-0.005,0.008-0.008l9.812-13.55C76.631,51.907,76.537,51.323,76.119,51.02z"/>
	</g>
</g>
<g id="Ebene_3" display="none">
	<g display="inline">
		
			<image overflow="visible" opacity="0.25" enable-background="new    " width="238" height="238" xlink:href="9D70E219ACA818A2.png"  transform="matrix(0.2329 0 0 0.2329 35.7988 38.2881)">
		</image>
		<g>
			<g>
				<polygon fill="#1B485D" points="39.775,87.713 84.73,87.713 84.73,86.725 87.201,88.219 84.73,89.713 84.73,88.701 
					84.73,88.701 38.787,88.701 38.787,87.96 38.787,42.757 37.799,42.757 39.281,40.287 40.763,42.757 39.775,42.757 				"/>
				<polygon fill="#1B485D" points="40.763,86.741 47.759,73.148 54.073,78.6 65.529,72.654 73.551,77.709 82.755,67.202 
					82.755,86.741 				"/>
				<polygon fill="#00AEEE" points="41.311,83.225 47.519,71.172 54.073,77.117 65.883,71.172 73.536,75.793 82.755,65.067 
					82.755,54.177 72.529,67.402 63.307,58.61 55.422,69.412 43.217,63.767 				"/>
			</g>
		</g>
	</g>
</g>
<g id="Ebene_5" display="none">
	<g display="inline">
		
			<image overflow="visible" opacity="0.25" enable-background="new    " width="233" height="250" xlink:href="9D70E219ACA818A5.png"  transform="matrix(0.2369 0 0 0.2362 36.002 36.5674)">
		</image>
		<g>
			<g>
				<path fill="#1B485D" d="M86.994,68.8c-0.001-0.007-0.002-0.013-0.002-0.02c-0.004-0.031-0.006-0.062-0.01-0.091
					c-0.002-0.013-0.004-0.023-0.006-0.034c-0.004-0.025-0.006-0.052-0.013-0.075c-0.003-0.014-0.006-0.027-0.009-0.041
					c-0.005-0.021-0.01-0.045-0.016-0.066c-0.004-0.016-0.01-0.031-0.015-0.047c-0.006-0.02-0.012-0.04-0.018-0.059
					c-0.007-0.016-0.013-0.032-0.019-0.049c-0.007-0.019-0.013-0.036-0.021-0.055c-0.007-0.016-0.015-0.031-0.022-0.048
					s-0.015-0.034-0.023-0.052c-0.008-0.016-0.018-0.032-0.025-0.047c-0.009-0.016-0.018-0.033-0.025-0.049
					c-0.01-0.017-0.02-0.031-0.028-0.047c-0.009-0.015-0.019-0.03-0.029-0.045c-0.01-0.016-0.021-0.03-0.032-0.045
					c-0.011-0.015-0.021-0.029-0.031-0.043c-0.012-0.015-0.023-0.029-0.034-0.043c-0.013-0.014-0.023-0.029-0.035-0.043
					c-0.013-0.013-0.024-0.025-0.036-0.039c-0.013-0.014-0.025-0.027-0.038-0.041c-0.013-0.013-0.026-0.024-0.039-0.037
					c-0.014-0.013-0.026-0.025-0.041-0.037c-0.013-0.013-0.026-0.023-0.04-0.034c-0.016-0.013-0.031-0.025-0.045-0.036
					c-0.014-0.012-0.029-0.021-0.044-0.032c-0.016-0.011-0.03-0.022-0.047-0.034c-0.015-0.01-0.03-0.02-0.046-0.029
					c-0.016-0.008-0.029-0.019-0.044-0.027c-0.002-0.001-0.003-0.002-0.005-0.003s-0.004-0.002-0.006-0.003l-1.853-1.059V55.14
					c0-0.015-0.002-0.031-0.002-0.046c-0.001-0.035-0.002-0.07-0.005-0.104c-0.002-0.026-0.006-0.051-0.009-0.077
					c-0.005-0.027-0.007-0.055-0.013-0.082c-0.006-0.03-0.014-0.06-0.021-0.089c-0.006-0.023-0.011-0.045-0.017-0.068
					C84.221,54.64,84.21,54.61,84.2,54.58c-0.007-0.021-0.015-0.042-0.023-0.063c-0.012-0.028-0.024-0.057-0.036-0.085
					c-0.011-0.022-0.021-0.044-0.033-0.066c-0.012-0.025-0.025-0.049-0.039-0.073s-0.028-0.049-0.045-0.072
					c-0.012-0.021-0.026-0.04-0.041-0.06c-0.018-0.025-0.035-0.05-0.056-0.075c-0.014-0.017-0.028-0.034-0.043-0.051
					c-0.021-0.024-0.042-0.049-0.065-0.071c-0.016-0.017-0.032-0.033-0.049-0.049c-0.022-0.021-0.045-0.042-0.068-0.062
					c-0.021-0.018-0.043-0.035-0.064-0.052c-0.021-0.016-0.041-0.032-0.062-0.046c-0.028-0.02-0.059-0.038-0.09-0.057
					c-0.012-0.008-0.024-0.017-0.037-0.024l-9.648-5.516v-2.407c0-0.037-0.002-0.075-0.004-0.112
					c-0.001-0.012-0.003-0.023-0.003-0.035c-0.002-0.026-0.004-0.051-0.008-0.076c-0.002-0.015-0.005-0.03-0.007-0.045
					c-0.004-0.022-0.006-0.043-0.012-0.065c-0.002-0.016-0.008-0.032-0.012-0.048c-0.005-0.02-0.009-0.04-0.014-0.06
					c-0.004-0.016-0.01-0.032-0.016-0.047c-0.006-0.019-0.011-0.038-0.017-0.057c-0.005-0.016-0.013-0.032-0.019-0.047
					c-0.006-0.018-0.014-0.037-0.021-0.055c-0.006-0.016-0.015-0.031-0.021-0.046c-0.008-0.018-0.017-0.036-0.024-0.053
					c-0.007-0.015-0.017-0.03-0.024-0.044c-0.009-0.017-0.018-0.035-0.027-0.052c-0.008-0.014-0.018-0.028-0.026-0.042
					c-0.011-0.017-0.021-0.034-0.03-0.05c-0.01-0.014-0.021-0.027-0.029-0.041c-0.012-0.016-0.023-0.033-0.035-0.049
					c-0.01-0.013-0.021-0.026-0.032-0.039c-0.013-0.015-0.024-0.031-0.038-0.046c-0.011-0.013-0.023-0.025-0.035-0.037
					c-0.013-0.014-0.025-0.029-0.039-0.043c-0.013-0.012-0.025-0.024-0.037-0.035c-0.015-0.013-0.029-0.027-0.043-0.04
					c-0.014-0.012-0.027-0.022-0.041-0.033c-0.015-0.013-0.029-0.025-0.045-0.037c-0.014-0.011-0.027-0.021-0.043-0.031
					c-0.016-0.012-0.031-0.022-0.047-0.034c-0.015-0.01-0.031-0.02-0.046-0.029c-0.015-0.009-0.03-0.019-0.045-0.028
					c-0.002-0.001-0.003-0.002-0.005-0.003s-0.003-0.002-0.005-0.003l-9.612-5.497c-0.519-0.297-1.156-0.296-1.674,0l-9.612,5.493
					c-0.002,0.001-0.004,0.002-0.006,0.004c-0.001,0.001-0.003,0.001-0.004,0.002c-0.013,0.007-0.024,0.015-0.036,0.023
					c-0.018,0.011-0.037,0.022-0.055,0.034c-0.014,0.009-0.027,0.02-0.041,0.029c-0.017,0.012-0.034,0.024-0.05,0.036
					c-0.014,0.011-0.027,0.022-0.041,0.033c-0.015,0.012-0.03,0.024-0.045,0.037c-0.014,0.012-0.027,0.025-0.041,0.038
					c-0.013,0.013-0.027,0.025-0.04,0.038c-0.013,0.014-0.026,0.027-0.039,0.042c-0.012,0.013-0.024,0.025-0.036,0.038
					c-0.013,0.015-0.025,0.031-0.037,0.046c-0.011,0.013-0.022,0.026-0.032,0.039c-0.012,0.016-0.024,0.033-0.035,0.049
					c-0.009,0.013-0.02,0.026-0.028,0.04c-0.011,0.016-0.021,0.034-0.032,0.051c-0.009,0.014-0.018,0.028-0.026,0.042
					c-0.009,0.017-0.018,0.034-0.027,0.052c-0.008,0.015-0.016,0.03-0.024,0.045c-0.008,0.017-0.016,0.035-0.024,0.053
					c-0.007,0.016-0.015,0.031-0.021,0.047c-0.007,0.017-0.014,0.036-0.021,0.054c-0.006,0.016-0.013,0.032-0.018,0.049
					c-0.006,0.017-0.011,0.036-0.016,0.053c-0.005,0.017-0.011,0.034-0.016,0.052c-0.005,0.018-0.008,0.036-0.013,0.054
					c-0.004,0.018-0.009,0.035-0.013,0.053s-0.006,0.037-0.009,0.056c-0.003,0.018-0.006,0.035-0.009,0.053
					c-0.003,0.021-0.004,0.041-0.006,0.062c-0.002,0.016-0.004,0.033-0.005,0.05c-0.002,0.027-0.002,0.054-0.003,0.081
					c0,0.011-0.001,0.021-0.001,0.031l0,0l0,0v2.406l-9.647,5.514c-0.014,0.008-0.026,0.017-0.04,0.026
					c-0.029,0.018-0.059,0.036-0.086,0.055c-0.022,0.015-0.043,0.032-0.064,0.048c-0.022,0.016-0.043,0.032-0.064,0.05
					c-0.024,0.02-0.046,0.042-0.069,0.063c-0.016,0.016-0.033,0.031-0.049,0.047c-0.023,0.024-0.044,0.048-0.066,0.072
					c-0.014,0.016-0.028,0.033-0.042,0.05c-0.02,0.025-0.038,0.05-0.056,0.075c-0.014,0.02-0.028,0.039-0.041,0.059
					c-0.015,0.024-0.03,0.048-0.044,0.072c-0.014,0.024-0.027,0.048-0.04,0.072c-0.011,0.022-0.022,0.044-0.032,0.066
					c-0.013,0.028-0.025,0.056-0.037,0.085c-0.008,0.021-0.016,0.042-0.023,0.063c-0.011,0.031-0.021,0.061-0.03,0.092
					c-0.006,0.022-0.012,0.045-0.017,0.067c-0.007,0.03-0.014,0.06-0.02,0.09c-0.005,0.027-0.008,0.054-0.012,0.081
					c-0.004,0.026-0.007,0.052-0.009,0.079c-0.003,0.034-0.004,0.068-0.005,0.102c-0.001,0.016-0.002,0.032-0.002,0.047v11.254
					l-1.853,1.06c-0.001,0-0.002,0.002-0.004,0.002c-0.002,0.001-0.004,0.002-0.006,0.003c-0.018,0.011-0.036,0.022-0.054,0.034
					c-0.012,0.007-0.024,0.015-0.036,0.022c-0.02,0.013-0.038,0.027-0.057,0.041c-0.011,0.009-0.023,0.017-0.034,0.024
					c-0.018,0.014-0.036,0.029-0.055,0.045c-0.01,0.008-0.021,0.017-0.031,0.025c-0.017,0.016-0.034,0.032-0.051,0.049
					c-0.01,0.009-0.02,0.018-0.029,0.026c-0.016,0.017-0.032,0.035-0.047,0.052c-0.009,0.011-0.018,0.021-0.027,0.03
					c-0.015,0.017-0.03,0.036-0.044,0.054c-0.008,0.012-0.017,0.021-0.025,0.031c-0.014,0.018-0.027,0.037-0.04,0.057
					c-0.008,0.011-0.016,0.021-0.024,0.033c-0.013,0.019-0.024,0.037-0.036,0.057c-0.007,0.012-0.015,0.023-0.022,0.035
					c-0.012,0.02-0.022,0.039-0.032,0.06c-0.006,0.013-0.013,0.024-0.02,0.036c-0.01,0.021-0.02,0.042-0.029,0.062
					c-0.005,0.012-0.012,0.024-0.016,0.036c-0.009,0.021-0.016,0.042-0.024,0.064c-0.005,0.013-0.01,0.026-0.015,0.039
					c-0.007,0.021-0.014,0.044-0.021,0.067c-0.004,0.012-0.008,0.024-0.012,0.037c-0.006,0.023-0.012,0.047-0.017,0.071
					c-0.003,0.013-0.006,0.024-0.008,0.037c-0.005,0.024-0.009,0.05-0.013,0.075c-0.002,0.012-0.004,0.022-0.006,0.033
					c-0.004,0.028-0.006,0.058-0.008,0.086c-0.001,0.008-0.002,0.017-0.003,0.025c-0.002,0.033-0.003,0.064-0.003,0.1
					c0,0.004-0.001,0.009-0.001,0.014l0,0l0,0v11.045c0,0.605,0.324,1.164,0.849,1.464l9.612,5.499
					c0.259,0.148,0.548,0.223,0.838,0.223c0.292,0,0.585-0.076,0.846-0.228c0.02-0.011,0.038-0.024,0.056-0.035l1.945-1.112
					l9.514,5.442c0.264,0.151,0.552,0.224,0.836,0.224c0.338,0,0.669-0.103,0.949-0.293l9.396-5.375l2.018,1.153
					c0.259,0.149,0.548,0.224,0.838,0.224c0.292,0,0.585-0.076,0.846-0.229c0.02-0.012,0.038-0.023,0.057-0.036l9.545-5.461
					c0.525-0.301,0.85-0.858,0.85-1.464V68.913C86.998,68.875,86.997,68.838,86.994,68.8z M81.912,68.912l-6.213,3.55l-6.213-3.552
					l6.213-3.551L81.912,68.912z M67.775,71.818l6.238,3.568v7.159l-6.238-3.569V71.818z M54.575,48.656l6.238,3.568v7.159
					l-6.238-3.569V48.656z M64.188,52.223l6.237-3.565v7.154l-6.237,3.569V52.223z M62.5,42.197l6.212,3.552l-6.213,3.55
					l-6.212-3.552L62.5,42.197z M50.987,82.542v-7.157l6.238-3.564v7.152L50.987,82.542z M49.3,72.463l-6.212-3.552L49.3,65.36
					l6.213,3.552L49.3,72.463z M41.376,71.818l6.238,3.568v7.158l-6.238-3.568V71.818z M62.495,87.798l-6.95-3.976l4.205-2.406
					c0.525-0.301,0.849-0.859,0.849-1.464V68.913c0-0.038-0.001-0.075-0.004-0.112c-0.001-0.014-0.003-0.027-0.004-0.042
					c-0.002-0.022-0.004-0.046-0.007-0.069c-0.002-0.017-0.005-0.032-0.008-0.049c-0.003-0.021-0.006-0.041-0.011-0.062
					c-0.003-0.017-0.007-0.031-0.011-0.047c-0.005-0.021-0.009-0.041-0.014-0.062c-0.004-0.016-0.009-0.031-0.014-0.046
					c-0.006-0.02-0.012-0.04-0.018-0.059c-0.005-0.015-0.012-0.03-0.017-0.045c-0.007-0.02-0.014-0.038-0.022-0.058
					c-0.006-0.014-0.013-0.027-0.02-0.043c-0.008-0.019-0.017-0.037-0.026-0.057c-0.007-0.014-0.014-0.025-0.021-0.04
					c-0.01-0.019-0.02-0.038-0.031-0.056c-0.007-0.014-0.015-0.025-0.023-0.037c-0.012-0.02-0.023-0.037-0.035-0.057
					c-0.008-0.012-0.016-0.022-0.024-0.033c-0.013-0.019-0.026-0.037-0.04-0.056c-0.008-0.011-0.017-0.021-0.026-0.032
					c-0.014-0.018-0.028-0.035-0.044-0.053c-0.009-0.01-0.018-0.02-0.027-0.029c-0.016-0.018-0.032-0.035-0.048-0.051
					c-0.009-0.01-0.02-0.019-0.029-0.027c-0.017-0.017-0.034-0.033-0.052-0.049c-0.01-0.01-0.021-0.018-0.031-0.025
					c-0.018-0.016-0.036-0.031-0.055-0.045c-0.011-0.008-0.022-0.016-0.034-0.024c-0.019-0.014-0.037-0.028-0.057-0.041
					c-0.012-0.008-0.025-0.015-0.037-0.022c-0.018-0.012-0.035-0.023-0.053-0.033c-0.002-0.001-0.004-0.002-0.006-0.003
					c-0.001-0.001-0.003-0.002-0.004-0.002l-9.612-5.496c-0.519-0.297-1.156-0.297-1.674,0l-4.385,2.506v-8.347l7.123-4.071v4.752
					c0,0.605,0.324,1.164,0.849,1.464l9.612,5.499c0.259,0.149,0.549,0.223,0.838,0.223c0.292,0,0.585-0.076,0.846-0.228
					c0.021-0.012,0.04-0.024,0.06-0.037l9.543-5.46c0.525-0.301,0.85-0.859,0.85-1.464v-4.746l7.123,4.073v8.342l-4.384-2.507
					c-0.519-0.297-1.156-0.297-1.675-0.001l-9.611,5.493c-0.002,0.002-0.004,0.003-0.006,0.005
					c-0.001,0.001-0.004,0.001-0.004,0.002c-0.012,0.007-0.023,0.015-0.035,0.022c-0.02,0.012-0.038,0.022-0.057,0.034
					c-0.014,0.009-0.026,0.019-0.039,0.027c-0.017,0.012-0.035,0.024-0.051,0.037c-0.014,0.01-0.027,0.021-0.039,0.03
					c-0.016,0.014-0.031,0.025-0.047,0.039c-0.013,0.012-0.025,0.023-0.037,0.035c-0.014,0.014-0.029,0.027-0.043,0.041
					c-0.012,0.012-0.023,0.025-0.035,0.038c-0.014,0.015-0.027,0.028-0.041,0.042c-0.012,0.014-0.022,0.027-0.033,0.041
					c-0.012,0.016-0.024,0.029-0.036,0.044c-0.011,0.015-0.021,0.029-0.031,0.043c-0.011,0.015-0.022,0.03-0.032,0.046
					c-0.011,0.016-0.02,0.03-0.029,0.045c-0.01,0.017-0.02,0.031-0.029,0.047c-0.008,0.016-0.016,0.031-0.023,0.047
					c-0.01,0.017-0.019,0.033-0.027,0.05c-0.008,0.016-0.014,0.032-0.021,0.049s-0.016,0.034-0.023,0.051
					c-0.006,0.017-0.012,0.033-0.018,0.05c-0.007,0.018-0.014,0.034-0.02,0.053c-0.006,0.016-0.01,0.033-0.016,0.05
					c-0.006,0.019-0.012,0.037-0.017,0.055c-0.005,0.017-0.008,0.035-0.013,0.052c-0.004,0.019-0.008,0.037-0.012,0.056
					c-0.004,0.02-0.008,0.039-0.011,0.059c-0.003,0.017-0.006,0.034-0.008,0.052c-0.003,0.022-0.005,0.045-0.007,0.068
					c-0.002,0.014-0.004,0.028-0.004,0.043c-0.002,0.031-0.004,0.062-0.004,0.094c0,0.006,0,0.012,0,0.019l0,0l0,0v11.045
					c0,0.604,0.324,1.164,0.849,1.464l4.196,2.4L62.495,87.798z M77.387,82.542v-7.157l6.238-3.564v7.152L77.387,82.542z"/>
				<path fill="#00AEEE" d="M61.663,91.209c0.264,0.15,0.552,0.223,0.836,0.223c0.338,0,0.669-0.102,0.948-0.291 M54.575,48.656
					l6.238,3.568v7.159l-6.238-3.569V48.656z M64.188,52.223l6.237-3.565v7.154l-6.237,3.569V52.223z M62.5,42.197l6.212,3.552
					l-6.213,3.55l-6.212-3.552L62.5,42.197z M73.799,48.158v-2.407c0-0.037-0.002-0.075-0.004-0.112
					c-0.001-0.012-0.003-0.023-0.003-0.035c-0.002-0.026-0.004-0.051-0.008-0.076c-0.002-0.015-0.005-0.03-0.007-0.045
					c-0.004-0.022-0.006-0.043-0.012-0.065c-0.002-0.016-0.008-0.032-0.012-0.048c-0.005-0.02-0.009-0.04-0.014-0.06
					c-0.004-0.016-0.01-0.032-0.016-0.047c-0.006-0.019-0.011-0.038-0.017-0.057c-0.005-0.016-0.013-0.032-0.019-0.047
					c-0.006-0.018-0.014-0.037-0.021-0.055c-0.006-0.016-0.015-0.031-0.021-0.046c-0.008-0.018-0.017-0.036-0.024-0.053
					c-0.007-0.015-0.017-0.03-0.024-0.044c-0.009-0.017-0.018-0.035-0.027-0.052c-0.008-0.014-0.018-0.028-0.026-0.042
					c-0.011-0.017-0.021-0.034-0.03-0.05c-0.01-0.014-0.021-0.027-0.029-0.041c-0.012-0.016-0.023-0.033-0.035-0.049
					c-0.01-0.013-0.021-0.026-0.032-0.039c-0.013-0.015-0.024-0.031-0.038-0.046c-0.011-0.013-0.023-0.025-0.035-0.037
					c-0.013-0.014-0.025-0.029-0.039-0.043c-0.013-0.012-0.025-0.024-0.037-0.035c-0.015-0.013-0.028-0.027-0.043-0.04
					c-0.014-0.012-0.027-0.022-0.041-0.033c-0.015-0.013-0.029-0.025-0.045-0.037c-0.014-0.011-0.027-0.021-0.043-0.031
					c-0.016-0.012-0.031-0.023-0.047-0.034c-0.015-0.01-0.031-0.02-0.046-0.029c-0.015-0.009-0.03-0.019-0.045-0.028
					c-0.002-0.001-0.003-0.002-0.005-0.003s-0.003-0.002-0.005-0.003l-9.612-5.497c-0.519-0.297-1.156-0.296-1.674,0l-9.612,5.493
					c-0.002,0.001-0.004,0.002-0.006,0.004c-0.001,0.001-0.003,0.001-0.004,0.002c-0.013,0.007-0.024,0.015-0.036,0.023
					c-0.018,0.011-0.037,0.022-0.055,0.034c-0.014,0.009-0.027,0.02-0.041,0.029c-0.017,0.012-0.034,0.024-0.05,0.036
					c-0.014,0.011-0.027,0.022-0.041,0.033c-0.015,0.012-0.03,0.024-0.045,0.037c-0.014,0.012-0.027,0.025-0.041,0.038
					c-0.013,0.013-0.027,0.025-0.04,0.038c-0.013,0.014-0.026,0.027-0.039,0.042c-0.012,0.013-0.024,0.025-0.036,0.038
					c-0.013,0.015-0.025,0.031-0.037,0.046c-0.011,0.013-0.022,0.026-0.032,0.039c-0.012,0.016-0.024,0.033-0.035,0.049
					c-0.009,0.013-0.02,0.026-0.028,0.04c-0.011,0.016-0.021,0.034-0.032,0.051c-0.009,0.014-0.018,0.028-0.026,0.042
					c-0.009,0.017-0.018,0.034-0.027,0.052c-0.008,0.015-0.016,0.03-0.024,0.045c-0.008,0.017-0.016,0.035-0.024,0.053
					c-0.007,0.016-0.015,0.031-0.021,0.047c-0.007,0.017-0.014,0.036-0.021,0.054c-0.006,0.016-0.013,0.032-0.018,0.049
					c-0.006,0.017-0.011,0.036-0.016,0.053c-0.005,0.017-0.011,0.034-0.016,0.052c-0.005,0.018-0.008,0.036-0.013,0.054
					c-0.004,0.018-0.009,0.035-0.013,0.053s-0.006,0.037-0.009,0.056c-0.003,0.018-0.006,0.035-0.009,0.053
					c-0.003,0.021-0.004,0.041-0.006,0.062c-0.002,0.016-0.004,0.033-0.005,0.05c-0.002,0.027-0.002,0.054-0.003,0.081
					c0,0.011-0.001,0.021-0.001,0.031l0,0l0,0v2.406v3.886v4.752c0,0.605,0.324,1.164,0.849,1.464l9.612,5.499
					c0.259,0.149,0.549,0.223,0.838,0.223c0.292,0,0.585-0.076,0.847-0.228c0.02-0.012,0.039-0.024,0.059-0.037l9.544-5.46
					c0.524-0.301,0.849-0.859,0.849-1.464v-4.746V48.158z"/>
			</g>
		</g>
	</g>
</g>
<g id="Ebene_6" display="none">
	<g display="inline">
		<path d="M46.652,79.783c-2.772-2.772-4.771-6.227-5.782-9.988l-0.174-0.646l-3.873,1.041l0.173,0.646
			c1.192,4.44,3.549,8.515,6.819,11.784c10.275,10.275,26.996,10.273,37.287-0.001l3.09,3.091l2.916-12.211l-12.133,2.994
			l3.291,3.291C69.551,88.5,55.369,88.499,46.652,79.783z"/>
		<path d="M41.086,42.005l-2.914,12.21l12.131-2.993l-3.344-3.344c8.738-8.418,22.691-8.325,31.307,0.291
			c2.76,2.76,4.756,6.2,5.77,9.945l0.175,0.646l3.87-1.048l-0.174-0.645c-1.196-4.421-3.549-8.478-6.805-11.733
			c-4.974-4.973-11.598-7.711-18.646-7.706c-6.838,0.004-13.275,2.586-18.202,7.281l-0.135,0.132L41.086,42.005L41.086,42.005z"/>
	</g>
</g>
</svg>
