<?xml version="1.0" encoding="utf-8"?>
<!-- Generator: Adobe Illustrator 17.0.2, SVG Export Plug-In . SVG Version: 6.00 Build 0)  -->
<!DOCTYPE svg PUBLIC "-//W3C//DTD SVG 1.1//EN" "http://www.w3.org/Graphics/SVG/1.1/DTD/svg11.dtd">
<svg version="1.1" xmlns="http://www.w3.org/2000/svg" xmlns:xlink="http://www.w3.org/1999/xlink" x="0px" y="0px" width="125px"
	 height="130px" viewBox="0 0 125 130" enable-background="new 0 0 125 130" xml:space="preserve">
<g id="bg" display="none">
	<polygon fill="#CCCCCC" points="125,99.17 62.5,127.5 0,99.17 0,30.83 62.5,2.5 125,30.83 	"/>
	<polygon display="inline" fill="#CCCCCC" points="122,100.101 62,129.202 2,100.101 2,29.899 62,0.798 122,29.899 	"/>
</g>
<g id="bg_x5F_hover">
	<polygon fill="#1B485D" points="122,100.101 62,129.202 2,100.101 2,29.899 62,0.798 122,29.899 	"/>
</g>
<g id="banking" display="none">
	<g display="inline">
		<g>
			<path fill="#1B485D" d="M85.326,78.421h-1.223v-1.95c0-0.417-0.34-0.75-0.755-0.75h-2.107V60.948
				c0-0.368-0.301-0.674-0.673-0.674h-2.755c-0.373,0-0.676,0.306-0.676,0.674v14.775h-5.495V61.077
				c0-0.373-0.303-0.676-0.675-0.676H68.21c-0.372,0-0.672,0.304-0.672,0.676v14.646H57.463V60.948c0-0.368-0.302-0.674-0.675-0.674
				h-2.754c-0.373,0-0.675,0.306-0.675,0.674v14.775h-5.495V61.077c0-0.373-0.302-0.676-0.676-0.676h-2.754
				c-0.374,0-0.675,0.304-0.675,0.676v14.646h-2.107c-0.416,0-0.752,0.334-0.752,0.749v1.95h-1.226
				c-0.416-0.001-0.752,0.339-0.752,0.755v2.476c0,0.417,0.337,0.754,0.753,0.754h45.652c0.416,0,0.754-0.337,0.754-0.754v-2.476
				C86.08,78.761,85.741,78.421,85.326,78.421z"/>
			<path fill="#1B485D" d="M40.634,58.019h43.73c0.001,0,0.004,0,0.006,0c0.793,0,1.433-0.641,1.433-1.432
				c0-0.574-0.338-1.067-0.823-1.297l-11.252-6.217l-5.965-3.306l-2.972-1.647c-1.26-0.698-3.323-0.699-4.583-0.001l-3.128,1.732
				l0,0l-8.05,4.459l-9.089,5.022c-0.572,0.316-0.859,0.978-0.695,1.612C39.41,57.576,39.98,58.019,40.634,58.019z"/>
		</g>
		<path fill="#00AEEE" d="M63.575,43.52c-1.627-0.587-2.29-1.006-2.29-1.612c0-0.534,0.401-1.083,1.636-1.083
			c1.369,0,2.256,0.434,2.733,0.668l0.568-2.146c-0.663-0.305-1.512-0.596-2.767-0.625v-1.674h-1.865v1.803
			c-2.042,0.382-3.215,1.689-3.215,3.387c0,1.836,1.383,2.786,3.42,3.468c1.421,0.482,2.032,0.935,2.032,1.66
			c0,0.735-0.735,1.178-1.841,1.178c-1.235,0-2.347-0.396-3.153-0.835l-0.568,2.223c0.715,0.396,1.951,0.758,3.229,0.82v1.798h1.879
			v-1.96c2.189-0.363,3.363-1.803,3.363-3.492C66.733,45.366,65.841,44.327,63.575,43.52z"/>
	</g>
</g>
<g id="banking_hover" display="none">
	<g display="inline">
		<g>
			<path fill="#00AEEE" d="M85.326,78.421h-1.223v-1.95c0-0.417-0.34-0.75-0.755-0.75h-2.107V60.948
				c0-0.368-0.301-0.674-0.673-0.674h-2.755c-0.373,0-0.676,0.306-0.676,0.674v14.775h-5.495V61.077
				c0-0.373-0.303-0.676-0.675-0.676H68.21c-0.372,0-0.672,0.304-0.672,0.676v14.646H57.463V60.948c0-0.368-0.302-0.674-0.675-0.674
				h-2.754c-0.373,0-0.675,0.306-0.675,0.674v14.775h-5.495V61.077c0-0.373-0.302-0.676-0.676-0.676h-2.754
				c-0.374,0-0.675,0.304-0.675,0.676v14.646h-2.107c-0.416,0-0.752,0.334-0.752,0.749v1.95h-1.226
				c-0.416-0.001-0.752,0.339-0.752,0.755v2.476c0,0.417,0.337,0.754,0.753,0.754h45.652c0.416,0,0.754-0.337,0.754-0.754v-2.476
				C86.08,78.761,85.741,78.421,85.326,78.421z"/>
			<path fill="#00AEEE" d="M40.634,58.019h43.73c0.001,0,0.004,0,0.006,0c0.793,0,1.433-0.641,1.433-1.432
				c0-0.574-0.338-1.067-0.823-1.297l-11.252-6.217l-5.965-3.306l-2.972-1.647c-1.26-0.698-3.323-0.699-4.583-0.001l-3.128,1.732
				l0,0l-8.05,4.459l-9.089,5.022c-0.572,0.316-0.859,0.978-0.695,1.612C39.41,57.576,39.98,58.019,40.634,58.019z"/>
		</g>
		<path fill="#CCCCCC" d="M63.575,43.52c-1.627-0.587-2.29-1.006-2.29-1.612c0-0.534,0.401-1.083,1.636-1.083
			c1.369,0,2.256,0.434,2.733,0.668l0.568-2.146c-0.663-0.305-1.512-0.596-2.767-0.625v-1.674h-1.865v1.803
			c-2.042,0.382-3.215,1.689-3.215,3.387c0,1.836,1.383,2.786,3.42,3.468c1.421,0.482,2.032,0.935,2.032,1.66
			c0,0.735-0.735,1.178-1.841,1.178c-1.235,0-2.347-0.396-3.153-0.835l-0.568,2.223c0.715,0.396,1.951,0.758,3.229,0.82v1.798h1.879
			v-1.96c2.189-0.363,3.363-1.803,3.363-3.492C66.733,45.366,65.841,44.327,63.575,43.52z"/>
	</g>
</g>
<g id="DNS" display="none">
</g>
<g id="DNS_hover" display="none">
	<g display="inline">
		<g>
			<path fill="#1B485D" d="M39.472,51.863c0-1.278,1.045-2.323,2.323-2.323h17.838c1.278,0,2.323,1.045,2.323,2.323v1.039
				c0,1.278-1.045,2.323-2.323,2.323H41.794c-1.278,0-2.323-1.045-2.323-2.323V51.863z"/>
		</g>
		<g>
			<path fill="#1B485D" d="M73.874,51.863c0-1.278,1.045-2.323,2.323-2.323h7.009c1.278,0,2.323,1.045,2.323,2.323v1.039
				c0,1.278-1.045,2.323-2.323,2.323h-7.009c-1.278,0-2.323-1.045-2.323-2.323V51.863z"/>
		</g>
		<path fill="#00AEEE" d="M68.326,55.504c1.706,0,3.117-1.404,3.117-3.123s-1.411-3.114-3.117-3.114
			c-1.723,0-3.114,1.398-3.114,3.114C65.212,54.1,66.603,55.504,68.326,55.504z"/>
		<g>
			<path fill="#1B485D" d="M39.472,64.486c0-1.278,1.045-2.323,2.323-2.323h17.838c1.278,0,2.323,1.045,2.323,2.323v1.035
				c0,1.278-1.045,2.323-2.323,2.323H41.794c-1.278,0-2.323-1.045-2.323-2.323V64.486z"/>
		</g>
		<g>
			<path fill="#1B485D" d="M73.874,64.486c0-1.278,1.045-2.323,2.323-2.323h7.009c1.278,0,2.323,1.045,2.323,2.323v1.035
				c0,1.278-1.045,2.323-2.323,2.323h-7.009c-1.278,0-2.323-1.045-2.323-2.323V64.486z"/>
		</g>
		<path fill="#00AEEE" d="M68.326,68.117c1.706,0,3.117-1.401,3.117-3.117c0-1.716-1.411-3.12-3.117-3.12
			c-1.723,0-3.114,1.407-3.114,3.12C65.212,66.716,66.603,68.117,68.326,68.117z"/>
		<g>
			<path fill="#1B485D" d="M39.472,77.095c0-1.278,1.045-2.323,2.323-2.323h17.838c1.278,0,2.323,1.045,2.323,2.323v1.045
				c0,1.278-1.045,2.323-2.323,2.323H41.794c-1.278,0-2.323-1.045-2.323-2.323V77.095z"/>
		</g>
		<g>
			<path fill="#1B485D" d="M73.874,77.095c0-1.278,1.045-2.323,2.323-2.323h7.009c1.278,0,2.323,1.045,2.323,2.323v1.045
				c0,1.278-1.045,2.323-2.323,2.323h-7.009c-1.278,0-2.323-1.045-2.323-2.323V77.095z"/>
		</g>
		<path fill="#00AEEE" d="M68.326,80.732c1.706,0,3.117-1.398,3.117-3.117c0-1.719-1.411-3.114-3.117-3.114
			c-1.723,0-3.114,1.398-3.114,3.114C65.212,79.335,66.603,80.732,68.326,80.732z"/>
	</g>
</g>
<g id="Stock" display="none">
	<g display="inline">
		<polygon fill="#1B485D" points="55.324,80.769 36.667,80.769 69.676,48.769 88.333,48.769 		"/>
		<polygon fill="#00AEEE" points="69.676,80.769 88.333,80.769 55.324,48.769 36.667,48.769 		"/>
		<polygon fill="#1B485D" points="55.324,80.769 36.667,80.769 53.171,64.769 71.829,64.769 		"/>
	</g>
</g>
<g id="Stock_hover" display="none">
	<g display="inline">
		<polygon fill="#CCCCCC" points="55.324,80.769 36.667,80.769 69.676,48.769 88.333,48.769 		"/>
		<polygon fill="#00AEEE" points="69.676,80.769 88.333,80.769 55.324,48.769 36.667,48.769 		"/>
		<polygon fill="#CCCCCC" points="55.324,80.769 36.667,80.769 53.171,64.769 71.829,64.769 		"/>
	</g>
</g>
<g id="Money" display="none">
	<g display="inline">
		<path fill="#1B485D" d="M91.479,51.078H33.518c-0.963,0-1.747,0.784-1.747,1.747v24.707c0,0.963,0.787,1.391,1.747,1.391h57.961
			c0.969,0,1.749-0.426,1.749-1.391V52.824C93.228,51.862,92.448,51.078,91.479,51.078z M43.12,67.125
			c-1.174,0-2.122-0.954-2.122-2.125c0-1.174,0.948-2.125,2.122-2.125c1.171,0,2.122,0.951,2.122,2.125
			C45.242,66.174,44.291,67.125,43.12,67.125z M62.499,75.25c-4.682,0-8.483-4.591-8.483-10.247c0-5.662,3.801-10.25,8.483-10.25
			s8.483,4.588,8.483,10.25C70.982,70.662,67.18,75.25,62.499,75.25z M81.88,67.125c-1.174,0-2.128-0.954-2.128-2.125
			c0-1.174,0.951-2.125,2.128-2.125c1.177,0,2.125,0.951,2.125,2.125C84.003,66.174,83.057,67.125,81.88,67.125z"/>
		<path fill="#00AEEE" d="M63.573,63.725c-1.627-0.587-2.29-1.006-2.29-1.612c0-0.534,0.401-1.083,1.636-1.083
			c1.369,0,2.256,0.434,2.733,0.668l0.568-2.146c-0.663-0.305-1.512-0.596-2.767-0.625v-1.674h-1.865v1.803
			c-2.042,0.382-3.215,1.689-3.215,3.387c0,1.836,1.383,2.786,3.42,3.468c1.421,0.482,2.032,0.935,2.032,1.66
			c0,0.735-0.735,1.178-1.841,1.178c-1.235,0-2.347-0.396-3.153-0.835l-0.568,2.223c0.715,0.396,1.951,0.758,3.229,0.82v1.798h1.879
			v-1.96c2.189-0.363,3.363-1.803,3.363-3.492C66.731,65.571,65.839,64.531,63.573,63.725z"/>
	</g>
</g>
<g id="Money_hover" display="none">
	<g display="inline">
		<path fill="#00AEEE" d="M91.479,51.078H33.518c-0.963,0-1.747,0.784-1.747,1.747v24.707c0,0.963,0.787,1.391,1.747,1.391h57.961
			c0.969,0,1.749-0.426,1.749-1.391V52.824C93.228,51.862,92.448,51.078,91.479,51.078z M43.12,67.125
			c-1.174,0-2.122-0.954-2.122-2.125c0-1.174,0.948-2.125,2.122-2.125c1.171,0,2.122,0.951,2.122,2.125
			C45.242,66.174,44.291,67.125,43.12,67.125z M62.499,75.25c-4.682,0-8.483-4.591-8.483-10.247c0-5.662,3.801-10.25,8.483-10.25
			s8.483,4.588,8.483,10.25C70.982,70.662,67.18,75.25,62.499,75.25z M81.88,67.125c-1.174,0-2.128-0.954-2.128-2.125
			c0-1.174,0.951-2.125,2.128-2.125c1.177,0,2.125,0.951,2.125,2.125C84.003,66.174,83.057,67.125,81.88,67.125z"/>
		<path fill="#CCCCCC" d="M63.573,63.725c-1.627-0.587-2.29-1.006-2.29-1.612c0-0.534,0.401-1.083,1.636-1.083
			c1.369,0,2.256,0.434,2.733,0.668l0.568-2.146c-0.663-0.305-1.512-0.596-2.767-0.625v-1.674h-1.865v1.803
			c-2.042,0.382-3.215,1.689-3.215,3.387c0,1.836,1.383,2.786,3.42,3.468c1.421,0.482,2.032,0.935,2.032,1.66
			c0,0.735-0.735,1.178-1.841,1.178c-1.235,0-2.347-0.396-3.153-0.835l-0.568,2.223c0.715,0.396,1.951,0.758,3.229,0.82v1.798h1.879
			v-1.96c2.189-0.363,3.363-1.803,3.363-3.492C66.731,65.571,65.839,64.531,63.573,63.725z"/>
	</g>
</g>
<g id="Music" display="none">
	<g display="inline">
		
			<image overflow="visible" opacity="0.25" width="269" height="161" xlink:href="6635C52A9F96938A.png"  transform="matrix(0.24 0 0 0.24 31.3165 46.6918)">
		</image>
		<g>
			<g>
				<g>
					<path fill="#00AEEE" d="M45.333,80.514c0,0.437-0.357,0.794-0.794,0.794H34.111c-0.437,0-0.794-0.357-0.794-0.794v-3.562
						c0-0.437,0.357-0.794,0.794-0.794h10.428c0.437,0,0.794,0.357,0.794,0.794V80.514z"/>
				</g>
				<g>
					<path fill="#00AEEE" d="M76.233,80.514c0,0.437-0.357,0.794-0.794,0.794H65.011c-0.437,0-0.794-0.357-0.794-0.794v-3.562
						c0-0.437,0.357-0.794,0.794-0.794h10.428c0.437,0,0.794,0.357,0.794,0.794V80.514z"/>
				</g>
				<g>
					<path fill="#00AEEE" d="M91.684,80.514c0,0.437-0.357,0.794-0.794,0.794H80.46c-0.437,0-0.794-0.357-0.794-0.794v-3.562
						c0-0.437,0.357-0.794,0.794-0.794h10.429c0.437,0,0.794,0.357,0.794,0.794V80.514z"/>
				</g>
				<g>
					<path fill="#00AEEE" d="M60.783,80.514c0,0.437-0.357,0.794-0.794,0.794H49.561c-0.437,0-0.794-0.357-0.794-0.794v-3.562
						c0-0.437,0.357-0.794,0.794-0.794h10.428c0.437,0,0.794,0.357,0.794,0.794V80.514z"/>
				</g>
				<g>
					<path fill="#00AEEE" d="M45.333,73.647c0,0.437-0.357,0.794-0.794,0.794H34.111c-0.437,0-0.794-0.357-0.794-0.794v-3.562
						c0-0.437,0.357-0.794,0.794-0.794h10.428c0.437,0,0.794,0.357,0.794,0.794V73.647z"/>
				</g>
				<g>
					<path fill="#00AEEE" d="M76.233,73.647c0,0.437-0.357,0.794-0.794,0.794H65.011c-0.437,0-0.794-0.357-0.794-0.794v-3.562
						c0-0.437,0.357-0.794,0.794-0.794h10.428c0.437,0,0.794,0.357,0.794,0.794V73.647z"/>
				</g>
				<g>
					<path fill="#00AEEE" d="M91.684,73.647c0,0.437-0.357,0.794-0.794,0.794H80.46c-0.437,0-0.794-0.357-0.794-0.794v-3.562
						c0-0.437,0.357-0.794,0.794-0.794h10.429c0.437,0,0.794,0.357,0.794,0.794V73.647z"/>
				</g>
				<g>
					<path fill="#CCCCCC" d="M60.783,73.647c0,0.437-0.357,0.794-0.794,0.794H49.561c-0.437,0-0.794-0.357-0.794-0.794v-3.562
						c0-0.437,0.357-0.794,0.794-0.794h10.428c0.437,0,0.794,0.357,0.794,0.794V73.647z"/>
				</g>
				<g>
					<path fill="#00AEEE" d="M45.333,66.78c0,0.438-0.357,0.794-0.794,0.794H34.111c-0.437,0-0.794-0.357-0.794-0.794v-3.562
						c0-0.437,0.357-0.794,0.794-0.794h10.428c0.437,0,0.794,0.357,0.794,0.794V66.78z"/>
				</g>
				<g>
					<path fill="#00AEEE" d="M76.233,66.78c0,0.438-0.357,0.794-0.794,0.794H65.011c-0.437,0-0.794-0.357-0.794-0.794v-3.562
						c0-0.437,0.357-0.794,0.794-0.794h10.428c0.437,0,0.794,0.357,0.794,0.794V66.78z"/>
				</g>
				<g>
					<path fill="#CCCCCC" d="M91.684,66.78c0,0.438-0.357,0.794-0.794,0.794H80.46c-0.437,0-0.794-0.357-0.794-0.794v-3.562
						c0-0.437,0.357-0.794,0.794-0.794h10.429c0.437,0,0.794,0.357,0.794,0.794V66.78z"/>
				</g>
				<g>
					<path fill="#00AEEE" d="M45.333,59.914c0,0.437-0.357,0.794-0.794,0.794H34.111c-0.437,0-0.794-0.357-0.794-0.794v-3.562
						c0-0.437,0.357-0.794,0.794-0.794h10.428c0.437,0,0.794,0.357,0.794,0.794V59.914z"/>
				</g>
				<g>
					<path fill="#CCCCCC" d="M76.233,59.914c0,0.437-0.357,0.794-0.794,0.794H65.011c-0.437,0-0.794-0.357-0.794-0.794v-3.562
						c0-0.437,0.357-0.794,0.794-0.794h10.428c0.437,0,0.794,0.357,0.794,0.794V59.914z"/>
				</g>
				<g>
					<path fill="#CCCCCC" d="M45.333,53.047c0,0.437-0.357,0.794-0.794,0.794H34.111c-0.437,0-0.794-0.357-0.794-0.794v-3.562
						c0-0.437,0.357-0.794,0.794-0.794h10.428c0.437,0,0.794,0.357,0.794,0.794V53.047z"/>
				</g>
			</g>
		</g>
	</g>
</g>
<g id="Music_hover" display="none">
</g>
<g id="charity" display="none">
	<g display="inline">
		
			<image overflow="visible" opacity="0.25" width="215" height="192" xlink:href="6635C52A9F96938E.png"  transform="matrix(0.24 0 0 0.24 37.7627 43.0377)">
		</image>
		<g>
			<g>
				<path fill="#00AEEE" d="M67.215,59.45c-0.747,0.746-1.753,1.176-2.766,1.176c-0.891,0-1.716-0.332-2.323-0.933l-9.169-9.175
					l-0.83,0.83l3.167,3.167L45.029,64.781c-0.303,0.303-0.546,0.653-0.728,1.04c-0.284,0.602-0.401,1.264-0.345,1.922
					c-2.71-2.738-4.198-6.213-4.193-9.79c0.005-3.419,1.367-6.656,3.834-9.109c2.467-2.453,5.741-3.806,9.22-3.806
					c2.057,0,4.016,0.462,5.826,1.367c0.737,0.364,1.455,0.812,2.131,1.338l0.322,0.252l6.366,6.362
					C68.792,55.695,68.685,57.98,67.215,59.45z"/>
				<path fill="#1B485D" d="M59.981,59.202L49.716,69.468c-0.48,0.476-1.129,0.742-1.814,0.742c-0.733,0-1.432-0.294-1.964-0.825
					c-0.532-0.531-0.825-1.226-0.825-1.964c0-0.69,0.26-1.334,0.741-1.814L56.12,55.341L59.981,59.202z"/>
				<path fill="#1B485D" d="M85.237,57.953c0.004,3.601-1.502,7.094-4.245,9.841c-1.632,1.628-3.512,3.507-5.434,5.429
					L64.468,84.221c-0.48,0.48-1.124,0.742-1.814,0.742c-0.737,0-1.437-0.294-1.964-0.826c-0.518-0.518-0.807-1.198-0.821-1.917
					c-0.014-0.704,0.247-1.367,0.737-1.861l10.783-10.788l-1.006-1.008L59.599,79.352c-0.481,0.476-1.129,0.741-1.814,0.741
					c-0.732,0-1.432-0.294-1.964-0.824c-0.531-0.532-0.825-1.227-0.825-1.964c0-0.691,0.261-1.335,0.741-1.815L66.52,64.701
					l-1.146-1.147L54.585,74.338c-0.48,0.481-1.124,0.742-1.814,0.742c-0.737,0-1.437-0.294-1.964-0.824
					c-0.518-0.518-0.807-1.199-0.821-1.917c-0.019-0.704,0.247-1.367,0.737-1.862l10.265-10.265l0.312,0.312
					c0.83,0.826,1.949,1.278,3.148,1.278c1.311,0,2.622-0.555,3.597-1.52c1.922-1.931,2.033-4.958,0.242-6.749l-4.999-5.001
					c2.425-2.257,5.568-3.493,8.894-3.493c3.474,0,6.749,1.353,9.22,3.806C83.871,51.297,85.233,54.534,85.237,57.953z"/>
			</g>
		</g>
	</g>
</g>
<g id="charity_hover" display="none">
	<g display="inline">
		
			<image overflow="visible" opacity="0.25" width="215" height="192" xlink:href="6635C52A9F969389.png"  transform="matrix(0.24 0 0 0.24 37.7627 43.0377)">
		</image>
		<g>
			<g>
				<path fill="#CCCCCC" d="M67.215,59.45c-0.747,0.746-1.753,1.176-2.766,1.176c-0.891,0-1.716-0.332-2.323-0.933l-9.169-9.175
					l-0.83,0.83l3.167,3.167L45.029,64.781c-0.303,0.303-0.546,0.653-0.728,1.04c-0.284,0.602-0.401,1.264-0.345,1.922
					c-2.71-2.738-4.198-6.213-4.193-9.79c0.005-3.419,1.367-6.656,3.834-9.109c2.467-2.453,5.741-3.806,9.22-3.806
					c2.057,0,4.016,0.462,5.826,1.367c0.737,0.364,1.455,0.812,2.131,1.338l0.322,0.252l6.366,6.362
					C68.792,55.695,68.685,57.98,67.215,59.45z"/>
				<path fill="#00AEEE" d="M59.981,59.202L49.716,69.468c-0.48,0.476-1.129,0.742-1.814,0.742c-0.733,0-1.432-0.294-1.964-0.825
					c-0.532-0.531-0.825-1.226-0.825-1.964c0-0.69,0.26-1.334,0.741-1.814L56.12,55.341L59.981,59.202z"/>
				<path fill="#00AEEE" d="M85.237,57.953c0.004,3.601-1.502,7.094-4.245,9.841c-1.632,1.628-3.512,3.507-5.434,5.429
					L64.468,84.221c-0.48,0.48-1.124,0.742-1.814,0.742c-0.737,0-1.437-0.294-1.964-0.826c-0.518-0.518-0.807-1.198-0.821-1.917
					c-0.014-0.704,0.247-1.367,0.737-1.861l10.783-10.788l-1.006-1.008L59.599,79.352c-0.481,0.476-1.129,0.741-1.814,0.741
					c-0.732,0-1.432-0.294-1.964-0.824c-0.531-0.532-0.825-1.227-0.825-1.964c0-0.691,0.261-1.335,0.741-1.815L66.52,64.701
					l-1.146-1.147L54.585,74.338c-0.48,0.481-1.124,0.742-1.814,0.742c-0.737,0-1.437-0.294-1.964-0.824
					c-0.518-0.518-0.807-1.199-0.821-1.917c-0.019-0.704,0.247-1.367,0.737-1.862l10.265-10.265l0.312,0.312
					c0.83,0.826,1.949,1.278,3.148,1.278c1.311,0,2.622-0.555,3.597-1.52c1.922-1.931,2.033-4.958,0.242-6.749l-4.999-5.001
					c2.425-2.257,5.568-3.493,8.894-3.493c3.474,0,6.749,1.353,9.22,3.806C83.871,51.297,85.233,54.534,85.237,57.953z"/>
			</g>
		</g>
	</g>
</g>
<g id="SmartC" display="none">
	<g id="Layer_2" display="inline">
		
			<image overflow="visible" opacity="0.25" width="257" height="208" xlink:href="6635C52A9F96938B.png"  transform="matrix(0.24 0 0 0.24 34.732 41.0669)">
		</image>
		<g>
			<g>
				<polygon fill="#1B485D" points="65.307,56.441 47.346,56.441 47.346,54.196 65.307,54.196 				"/>
				<polygon fill="#1B485D" points="65.307,62.313 47.346,62.313 47.346,60.065 65.307,60.065 				"/>
				<polygon fill="#1B485D" points="62.5,74.052 47.346,74.052 47.346,71.804 62.5,71.804 				"/>
				<polygon fill="#1B485D" points="62.5,79.921 47.346,79.921 47.346,77.673 62.5,77.673 				"/>
				<polygon fill="#1B485D" points="65.307,68.182 47.346,68.182 47.346,65.935 65.307,65.935 				"/>
				<polygon fill="#00AEEE" points="39.258,82.117 36.732,82.117 36.732,43.067 63.623,43.067 63.623,45.593 39.258,45.593 				"/>
				<path fill="#1B485D" d="M76.811,65.561v2.153h-5.005V47.369H41.221v39.564h30.585v-5.963h-2.275
					c-0.084,0-0.166-0.009-0.251-0.013v3.45H43.747V49.894h25.534v26.874c-1.298-0.468-2.227-1.707-2.227-3.164
					c0-0.543,0.125-1.061,0.371-1.537c0.32-0.62,0.077-1.381-0.543-1.701c-0.621-0.32-1.381-0.075-1.701,0.543
					c-0.426,0.829-0.651,1.762-0.651,2.696c0,2.982,2.227,5.448,5.105,5.834c0.484,0.113,0.787,0.059,0.787,0.059h1.387h5.005v2.429
					h15.456V65.561H76.811z M76.811,76.974h-5.005V70.24h5.005V76.974z M84.386,74.897c-0.77,0-1.398-0.624-1.398-1.397
					c0-0.773,0.626-1.399,1.398-1.399s1.399,0.625,1.399,1.399C85.785,74.273,85.159,74.897,84.386,74.897z"/>
			</g>
		</g>
	</g>
</g>
<g id="SmartC_hover">
	<g id="Layer_2_1_">
		
			<image overflow="visible" opacity="0.25" width="257" height="208" xlink:href="6635C52A9F969388.png"  transform="matrix(0.24 0 0 0.24 34.732 41.0669)">
		</image>
		<g>
			<g>
				<polygon fill="#00AEEE" points="65.307,56.441 47.346,56.441 47.346,54.196 65.307,54.196 				"/>
				<polygon fill="#00AEEE" points="65.307,62.313 47.346,62.313 47.346,60.065 65.307,60.065 				"/>
				<polygon fill="#00AEEE" points="62.5,74.052 47.346,74.052 47.346,71.804 62.5,71.804 				"/>
				<polygon fill="#00AEEE" points="62.5,79.921 47.346,79.921 47.346,77.673 62.5,77.673 				"/>
				<polygon fill="#00AEEE" points="65.307,68.182 47.346,68.182 47.346,65.935 65.307,65.935 				"/>
				<polygon fill="#CCCCCC" points="39.258,82.117 36.732,82.117 36.732,43.067 63.623,43.067 63.623,45.593 39.258,45.593 				"/>
				<path fill="#00AEEE" d="M76.811,65.561v2.153h-5.005V47.369H41.221v39.564h30.585v-5.963h-2.275
					c-0.084,0-0.166-0.009-0.251-0.013v3.45H43.747V49.894h25.534v26.874c-1.298-0.468-2.227-1.707-2.227-3.164
					c0-0.543,0.125-1.061,0.371-1.537c0.32-0.62,0.077-1.381-0.543-1.701c-0.621-0.32-1.381-0.075-1.701,0.543
					c-0.426,0.829-0.651,1.762-0.651,2.696c0,2.982,2.227,5.448,5.105,5.834c0.484,0.113,0.787,0.059,0.787,0.059h1.387h5.005v2.429
					h15.456V65.561H76.811z M76.811,76.974h-5.005V70.24h5.005V76.974z M84.386,74.897c-0.77,0-1.398-0.624-1.398-1.397
					c0-0.773,0.626-1.399,1.398-1.399s1.399,0.625,1.399,1.399C85.785,74.273,85.159,74.897,84.386,74.897z"/>
			</g>
		</g>
	</g>
</g>
</svg>
