<?xml version="1.0" encoding="utf-8"?>
<!-- Generator: Adobe Illustrator 16.2.1, SVG Export Plug-In . SVG Version: 6.00 Build 0)  -->
<!DOCTYPE svg PUBLIC "-//W3C//DTD SVG 1.1//EN" "http://www.w3.org/Graphics/SVG/1.1/DTD/svg11.dtd">
<svg version="1.1" xmlns="http://www.w3.org/2000/svg" xmlns:xlink="http://www.w3.org/1999/xlink" x="0px" y="0px" width="126px"
	 height="126.1px" viewBox="0 0 126 126.1" style="enable-background:new 0 0 126 126.1;" xml:space="preserve">
<style type="text/css">
<![CDATA[
	.st0{display:inline;fill:#1B485D;}
	.st1{fill:#E7EAEF;}
	.st2{opacity:0.25;mask:url(#SVGID_1_);}
	.st3{opacity:0.25;mask:url(#SVGID_2_);}
	.st4{opacity:0.25;mask:url(#SVGID_3_);}
	.st5{opacity:0.25;mask:url(#SVGID_4_);}
	.st6{opacity:0.25;mask:url(#SVGID_5_);}
	.st7{opacity:0.25;mask:url(#SVGID_6_);}
	.st8{opacity:0.25;mask:url(#SVGID_7_);}
	.st9{opacity:0.25;mask:url(#SVGID_8_);}
	.st10{filter:url(#Adobe_OpacityMaskFilter);}
	.st11{fill:none;stroke:#CCCCCC;stroke-miterlimit:10;}
	.st12{fill:#B3B3B3;}
	.st13{fill:#1B485D;}
	.st14{fill:none;stroke:#1B485D;stroke-miterlimit:10;}
	.st15{fill:none;stroke:#FFFFFF;stroke-miterlimit:10;}
	.st16{fill:#8CC63F;}
	.st17{fill:none;stroke:#B3B3B3;stroke-width:0.5;stroke-miterlimit:10;}
	.st18{fill:#1B485D;stroke:#1B485D;stroke-width:2;stroke-miterlimit:10;}
	.st19{stroke:#FFFFFF;stroke-miterlimit:10;}
	.st20{fill:#FFFFFF;}
	.st21{fill:#CCCCCC;}
	.st22{display:inline;}
	.st23{display:inline;fill:#00AEEE;}
	.st24{fill:#00AEEE;}
	.st25{fill:#00AEEF;}
	.st26{display:none;}
	.st27{filter:url(#Adobe_OpacityMaskFilter_1_);}
	.st28{filter:url(#Adobe_OpacityMaskFilter_2_);}
	.st29{filter:url(#Adobe_OpacityMaskFilter_3_);}
	.st30{filter:url(#Adobe_OpacityMaskFilter_4_);}
	.st31{filter:url(#Adobe_OpacityMaskFilter_5_);}
	.st32{filter:url(#Adobe_OpacityMaskFilter_6_);}
	.st33{filter:url(#Adobe_OpacityMaskFilter_7_);}
]]>
</style>
<g id="forum_screen">
</g>
<g id="Ebene_2">
</g>
<g id="Ico_Bounties">
</g>
<g id="Ico_Technical_Support" class="st26">
</g>
<g id="Ico_PRess" class="st26">
</g>
<g id="Ico_Marketing" class="st26">
</g>
<g id="Icon_General_Discussion">
	<g>
		<polygon class="st11" points="125.5,97.2 63,125.5 0.5,97.2 0.5,28.9 63,0.5 125.5,28.9 		"/>
		<path class="st18" d="M55.9,77.4c0.6-0.4,0.6-0.9,0.8-1.3c2.1-5.9,4.1-11.7,6.1-17.6c0.3-0.8,0.3-1.5,0-2.2
			c-1-2.4-1.5-4.9-2.7-7.2c-0.9-1.9-2.3-3.2-4.6-3.4c-0.3,0-0.7,0-0.7-0.5c0.1-0.5,0.5-0.4,0.8-0.4c5.1,0,10.1,0,15.2,0
			c0.3,0,0.8-0.2,0.8,0.4c0.1,0.6-0.5,0.5-0.8,0.5c-3.4,0.3-4.3,1.4-3.5,4.7c1.4,5.9,3.8,11.4,5.7,17.1c1.1,3.3,2.3,6.6,3.7,10.4
			c0.9-2.6,1.7-4.8,2.5-7.1c2.2-6.6,4.7-13,6.7-19.7c0.1-0.4,0.2-0.8,0.3-1.1c0.5-2.7-0.2-3.7-2.9-4.2c-0.5-0.1-1.6,0.4-1.5-0.5
			c0-0.9,1-0.4,1.6-0.4c3.4-0.1,6.8,0,10.2,0c0.3,0,0.9-0.2,1,0.3c0.1,0.7-0.5,0.5-0.9,0.6c-2.3,0.3-3.6,1.9-4.3,3.9
			c-1.7,4.7-3.3,9.4-4.9,14.1c-2.7,7.9-5.4,15.8-8.1,23.6c-0.2,0.6-0.1,1.4-1.1,1.4c-1.1,0-1-0.8-1.2-1.4C71,79.2,68.1,71,65.1,62.8
			c-0.1-0.4-0.3-0.7-0.5-1.3c-1.2,3.3-2.3,6.3-3.3,9.3c-2,5.6-3.9,11.2-5.9,16.7c-0.2,0.5-0.1,1.3-1.1,1.3c-0.9,0-0.8-0.8-1-1.2
			c-4.5-12.6-9.1-25.3-13.5-37.9c-0.8-2.3-2-3.8-4.6-4c-0.3,0-0.7,0-0.7-0.5c0.1-0.5,0.5-0.4,0.8-0.4c4.8,0,9.5,0,14.3,0
			c0.3,0,0.7-0.2,0.8,0.4c0.1,0.5-0.4,0.5-0.7,0.5c-3.4,0.5-4.1,1.5-3.1,4.8c2,6.6,4.5,13,6.7,19.5C54.2,72.4,55,74.9,55.9,77.4z"/>
	</g>
</g>
<g id="Ico_off">
</g>
<g id="Ico_on">
</g>
</svg>
