<?xml version="1.0" encoding="utf-8"?>
<!-- Generator: Adobe Illustrator 16.2.1, SVG Export Plug-In . SVG Version: 6.00 Build 0)  -->
<!DOCTYPE svg PUBLIC "-//W3C//DTD SVG 1.1//EN" "http://www.w3.org/Graphics/SVG/1.1/DTD/svg11.dtd">
<svg version="1.1" xmlns="http://www.w3.org/2000/svg" xmlns:xlink="http://www.w3.org/1999/xlink" x="0px" y="0px" width="126px"
	 height="126.1px" viewBox="0 0 126 126.1" style="enable-background:new 0 0 126 126.1;" xml:space="preserve">
<style type="text/css">
<![CDATA[
	.st0{display:inline;fill:#1B485D;}
	.st1{fill:#E7EAEF;}
	.st2{opacity:0.25;mask:url(#SVGID_1_);}
	.st3{opacity:0.25;mask:url(#SVGID_2_);}
	.st4{opacity:0.25;mask:url(#SVGID_3_);}
	.st5{opacity:0.25;mask:url(#SVGID_4_);}
	.st6{opacity:0.25;mask:url(#SVGID_5_);}
	.st7{opacity:0.25;mask:url(#SVGID_6_);}
	.st8{opacity:0.25;mask:url(#SVGID_7_);}
	.st9{opacity:0.25;mask:url(#SVGID_8_);}
	.st10{filter:url(#Adobe_OpacityMaskFilter);}
	.st11{fill:none;stroke:#CCCCCC;stroke-miterlimit:10;}
	.st12{fill:#B3B3B3;}
	.st13{fill:#1B485D;}
	.st14{fill:none;stroke:#1B485D;stroke-miterlimit:10;}
	.st15{fill:none;stroke:#FFFFFF;stroke-miterlimit:10;}
	.st16{fill:#8CC63F;}
	.st17{fill:none;stroke:#B3B3B3;stroke-width:0.5;stroke-miterlimit:10;}
	.st18{fill:#1B485D;stroke:#1B485D;stroke-width:2;stroke-miterlimit:10;}
	.st19{stroke:#FFFFFF;stroke-miterlimit:10;}
	.st20{fill:#FFFFFF;}
	.st21{fill:#CCCCCC;}
	.st22{display:inline;}
	.st23{display:inline;fill:#00AEEE;}
	.st24{fill:#00AEEE;}
	.st25{fill:#00AEEF;}
	.st26{display:none;}
	.st27{filter:url(#Adobe_OpacityMaskFilter_1_);}
	.st28{filter:url(#Adobe_OpacityMaskFilter_2_);}
	.st29{filter:url(#Adobe_OpacityMaskFilter_3_);}
	.st30{filter:url(#Adobe_OpacityMaskFilter_4_);}
	.st31{filter:url(#Adobe_OpacityMaskFilter_5_);}
	.st32{filter:url(#Adobe_OpacityMaskFilter_6_);}
	.st33{filter:url(#Adobe_OpacityMaskFilter_7_);}
]]>
</style>
<g id="forum_screen">
</g>
<g id="Ebene_2">
</g>
<g id="Ico_Bounties">
</g>
<g id="Ico_Technical_Support" class="st26">
</g>
<g id="Ico_PRess" class="st26">
</g>
<g id="Ico_Marketing" class="st26">
</g>
<g id="Icon_General_Discussion">
	<g>
		<polygon class="st11" points="125.5,97.2 63,125.5 0.5,97.2 0.5,28.9 63,0.5 125.5,28.9 		"/>
		<g>
			<path class="st24" d="M32.8,66.6c-0.9-0.6-1.5-1.8-1.5-2.8c0-1,0.4-2,1.6-2.5h-0.1c5.3-3.1,12.6-7.3,17.5-10.2V58
				c-1.9,1.1-4.5,2.4-11.1,5.9l0.1,0.1c3.5,1.6,7.5,3.9,11,6v7L32.8,66.6z"/>
			<path class="st24" d="M93.2,61.5c0.9,0.6,1.5,1.8,1.5,2.8s-0.4,2-1.6,2.5h0.1c-5.3,3.1-12.6,7.3-17.5,10.2v-6.9
				c1.9-1.1,4.5-2.4,11.1-5.9l-0.1-0.1c-3.5-1.6-7.5-3.9-11-6v-7L93.2,61.5z"/>
			<path class="st13" d="M60.7,77.9h-4.4l8.9-27.7h4.5L60.7,77.9z"/>
		</g>
	</g>
</g>
<g id="Ico_off">
</g>
<g id="Ico_on">
</g>
</svg>
