<?xml version="1.0" encoding="utf-8"?>
<!-- Generator: Adobe Illustrator 16.2.1, SVG Export Plug-In . SVG Version: 6.00 Build 0)  -->
<!DOCTYPE svg PUBLIC "-//W3C//DTD SVG 1.1//EN" "http://www.w3.org/Graphics/SVG/1.1/DTD/svg11.dtd">
<svg version="1.1" xmlns="http://www.w3.org/2000/svg" xmlns:xlink="http://www.w3.org/1999/xlink" x="0px" y="0px" width="126px"
	 height="126.1px" viewBox="0 0 126 126.1" style="enable-background:new 0 0 126 126.1;" xml:space="preserve">
<style type="text/css">
<![CDATA[
	.st0{display:inline;fill:#1B485D;}
	.st1{fill:#E7EAEF;}
	.st2{opacity:0.25;mask:url(#SVGID_1_);}
	.st3{opacity:0.25;mask:url(#SVGID_2_);}
	.st4{opacity:0.25;mask:url(#SVGID_3_);}
	.st5{opacity:0.25;mask:url(#SVGID_4_);}
	.st6{opacity:0.25;mask:url(#SVGID_5_);}
	.st7{opacity:0.25;mask:url(#SVGID_6_);}
	.st8{opacity:0.25;mask:url(#SVGID_7_);}
	.st9{opacity:0.25;mask:url(#SVGID_8_);}
	.st10{filter:url(#Adobe_OpacityMaskFilter);}
	.st11{fill:none;stroke:#CCCCCC;stroke-miterlimit:10;}
	.st12{fill:#B3B3B3;}
	.st13{fill:#1B485D;}
	.st14{fill:none;stroke:#1B485D;stroke-miterlimit:10;}
	.st15{fill:none;stroke:#FFFFFF;stroke-miterlimit:10;}
	.st16{fill:#8CC63F;}
	.st17{fill:none;stroke:#B3B3B3;stroke-width:0.5;stroke-miterlimit:10;}
	.st18{fill:#1B485D;stroke:#1B485D;stroke-width:2;stroke-miterlimit:10;}
	.st19{stroke:#FFFFFF;stroke-miterlimit:10;}
	.st20{fill:#FFFFFF;}
	.st21{fill:#CCCCCC;}
	.st22{display:inline;}
	.st23{display:inline;fill:#00AEEE;}
	.st24{fill:#00AEEE;}
	.st25{fill:#00AEEF;}
	.st26{display:none;}
	.st27{filter:url(#Adobe_OpacityMaskFilter_1_);}
	.st28{filter:url(#Adobe_OpacityMaskFilter_2_);}
	.st29{filter:url(#Adobe_OpacityMaskFilter_3_);}
	.st30{filter:url(#Adobe_OpacityMaskFilter_4_);}
	.st31{filter:url(#Adobe_OpacityMaskFilter_5_);}
	.st32{filter:url(#Adobe_OpacityMaskFilter_6_);}
	.st33{filter:url(#Adobe_OpacityMaskFilter_7_);}
]]>
</style>
<g id="forum_screen">
</g>
<g id="Ebene_2">
</g>
<g id="Ico_Bounties">
</g>
<g id="Ico_Technical_Support" class="st26">
</g>
<g id="Ico_PRess" class="st26">
</g>
<g id="Ico_Marketing" class="st26">
</g>
<g id="Icon_General_Discussion">
	<g>
		<polygon class="st11" points="125.5,97.2 63,125.5 0.5,97.2 0.5,28.9 63,0.5 125.5,28.9 		"/>
		<g>
			<path class="st24" d="M54.2,36.4c-9.9-1.9-19.4,4.5-21.3,14.4c-0.7,3.5-0.3,7,1,10.2l-7.2,9.5l11.2-3.3c2.5,2.5,5.7,4.3,9.4,5
				c9.9,1.9,19.4-4.5,21.3-14.4C70.5,47.8,64,38.3,54.2,36.4z"/>
			<g>
				<circle class="st13" cx="51.2" cy="59.7" r="1.8"/>
				<path class="st13" d="M53.8,54.7c-0.4,0.3-0.8,0.6-0.9,0.8c-0.1,0.2-0.2,0.3-0.3,0.5c-0.2,0.5-0.4,1.2-1.5,1.2
					c-1,0-1.5-0.8-1.5-1.6c0-1.3,1-2.1,1.9-2.8c0.8-0.6,1.4-1.1,1.4-1.8c0-0.9-0.5-1.3-1.5-1.3c-1.1,0-1.4,0.6-1.7,1.2
					c-0.3,0.6-0.6,1.3-1.6,1.3c-0.9,0-1.5-0.6-1.5-1.5c0-2,2.2-3.8,4.7-3.8c2.3,0,5.1,1.1,5.1,4.1C56.3,52.9,54.9,53.9,53.8,54.7z"
					/>
			</g>
			<path class="st24" d="M92.2,76.9c1.2-3.1,1.6-6.6,1-10.2c-1.9-9.9-11.5-16.3-21.3-14.4c-0.4,0.1-0.9,0.2-1.3,0.3
				c0.1,1.8,0,3.5-0.3,5.3c-1.4,7.1-6.4,12.7-12.9,15c0,0.3,0.1,0.5,0.1,0.8c1.9,9.9,11.5,16.3,21.3,14.4c3.7-0.7,6.9-2.5,9.4-5
				l11.2,3.3L92.2,76.9z"/>
			<circle class="st13" cx="70.5" cy="72.1" r="2.4"/>
			<circle class="st13" cx="77" cy="72.1" r="2.4"/>
			<path class="st13" d="M83.6,74.5c-1.3,0-2.4-1.1-2.4-2.4c0-1.3,1.1-2.4,2.4-2.4c1.3,0,2.4,1.1,2.4,2.4
				C86,73.4,84.9,74.5,83.6,74.5z"/>
		</g>
	</g>
</g>
<g id="Ico_off">
</g>
<g id="Ico_on">
</g>
</svg>
