<?xml version="1.0" encoding="utf-8"?>
<!-- Generator: Adobe Illustrator 16.2.1, SVG Export Plug-In . SVG Version: 6.00 Build 0)  -->
<!DOCTYPE svg PUBLIC "-//W3C//DTD SVG 1.1//EN" "http://www.w3.org/Graphics/SVG/1.1/DTD/svg11.dtd">
<svg version="1.1" id="Ebene_1" xmlns="http://www.w3.org/2000/svg" xmlns:xlink="http://www.w3.org/1999/xlink" x="0px" y="0px"
	 width="126px" height="126.1px" viewBox="0 0 126 126.1" style="enable-background:new 0 0 126 126.1;" xml:space="preserve">
<style type="text/css">
<![CDATA[
	.st0{font-family:'ProximaNova-Semibold';}
	.st1{fill:none;stroke:#CCCCCC;stroke-miterlimit:10;}
	.st2{fill:#1B485D;}
	.st3{enable-background:new    ;}
	.st4{font-size:11.6165;}
	.st5{fill:#FFFFFF;}
	.st6{fill:#00AEEE;}
	.st7{display:none;}
]]>
</style>
<g id="forum_screen">
</g>
<g id="Ebene_2">
</g>
<g id="Ico_Bounties">
</g>
<g id="Ico_Technical_Support" class="st7">
</g>
<g id="Ico_PRess" class="st7">
</g>
<g id="Ico_Marketing" class="st7">
</g>
<g id="Icon_General_Discussion">
	<text transform="matrix(1 0 0 1 51.1807 87.6995)" class="st5 st0 st4">U$D</text>
	<g>
		<path class="st6" d="M60.5,62L50.1,51.5V64h9.6C59.8,63.3,60.1,62.6,60.5,62"/>
		<path class="st6" d="M59.7,66.1h-9.6c0.2,3.4,1.6,6.4,3.6,8.8l6.8-6.8C60.1,67.5,59.8,66.8,59.7,66.1"/>
		<path class="st6" d="M74.8,53.8c-2.4-2.1-5.4-3.4-8.8-3.6v9.6c0.7,0.1,1.4,0.4,2,0.8L74.8,53.8z"/>
		<path class="st6" d="M69.6,68l6.8,6.8c2-2.4,3.3-5.4,3.5-8.7h-9.6C70.2,66.8,69.9,67.4,69.6,68"/>
		<path class="st6" d="M70.3,64h9.6c-0.2-3.4-1.6-6.4-3.6-8.8L69.5,62C69.9,62.6,70.2,63.3,70.3,64"/>
		<path class="st6" d="M55.2,76.3c2.4,2.1,5.4,3.4,8.8,3.6v-9.6c-0.7-0.1-1.4-0.4-2-0.8L55.2,76.3z"/>
		<path class="st6" d="M66,70.4V80c3.4-0.2,6.4-1.6,8.8-3.7L68,69.5C67.5,69.9,66.8,70.2,66,70.4"/>
		<path class="st6" d="M50.1,48.4c2.6,2.6,10.6,10.7,12,12c0.6-0.4,1.2-0.6,1.9-0.8V44L50.1,31.7C50.1,31.7,50.1,48,50.1,48.4"/>
	</g>
	<polygon class="st1" points="125.5,97.2 63,125.5 0.5,97.2 0.5,28.9 63,0.5 125.5,28.9 	"/>
</g>
<g class="st3">
	<path class="st2" d="M53.9,94.4v-6.8h-2.4v-1.2h6.2v1.2h-2.4v6.8H53.9z"/>
	<path class="st2" d="M63.7,94.4l-0.6-1.5h-3.7l-0.6,1.5h-1.6l3.1-8h1.8l3.1,8H63.7z M61.3,87.8l-1.4,3.8h2.9L61.3,87.8z"/>
	<path class="st2" d="M66.1,94.4v-8h1.4v6.8H71v1.2H66.1z"/>
	<path class="st2" d="M77.1,94.4L74.4,91l-0.7,0.8v2.6h-1.4v-8h1.4v3.8l3.1-3.8h1.7l-3.2,3.8l3.5,4.2H77.1z"/>
</g>
<g id="Ico_on">
</g>
</svg>
